<svg xmlns="http://www.w3.org/2000/svg" width="850" height="300" viewBox="0 0 850 300" role="img" aria-label="Contribution graph for userMarcPaul">
  <title>Contributions in the last 31 days for userMarcPaul</title>
  <style>
    text { font-family: 'Courier New', Consolas, 'Liberation Mono', monospace; }
    .rain { fill: #063d14; opacity: 0.55; font-size: 13px; animation: fall linear infinite; }
    @keyframes fall { from { transform: translateY(0); } to { transform: translateY(700px); } }
    .title { fill: #00ff41; font-size: 15px; font-weight: bold; }
    .sub { fill: #00b32d; font-size: 12px; }
    .axis { fill: #0a5c1f; font-size: 11px; }
    .grid { stroke: #063d14; stroke-dasharray: 2 4; }
    .line { fill: none; stroke: #00ff41; stroke-width: 2; stroke-linejoin: round;
             stroke-dasharray: 1151; stroke-dashoffset: 1151;
             animation: draw 2s ease-out 0.3s forwards; filter: url(#glow); }
    @keyframes draw { to { stroke-dashoffset: 0; } }
    .area { fill: url(#fade); opacity: 0; animation: show 0.8s ease-out 1.8s forwards; }
    .pt { fill: #000000; stroke: #00ff41; stroke-width: 1.5; opacity: 0; animation: show 0.4s 2.1s forwards; }
    @keyframes show { to { opacity: 1; } }
    @media (prefers-reduced-motion: reduce) {
      .rain { display: none; }
      .line { animation: none; stroke-dashoffset: 0; }
      .area, .pt { animation: none; opacity: 1; }
    }
  </style>
  <defs>
    <clipPath id="ca"><rect width="850" height="300" rx="6"/></clipPath>
    <linearGradient id="fade" x1="0" y1="0" x2="0" y2="1">
      <stop offset="0" stop-color="#00ff41" stop-opacity="0.28"/>
      <stop offset="1" stop-color="#00ff41" stop-opacity="0"/>
    </linearGradient>
    <filter id="glow" x="-5%" y="-20%" width="110%" height="140%">
      <feGaussianBlur stdDeviation="2.5" result="b"/>
      <feMerge><feMergeNode in="b"/><feMergeNode in="SourceGraphic"/></feMerge>
    </filter>
  </defs>
  <g clip-path="url(#ca)">
    <rect width="850" height="300" fill="#000000"/>
    <text class="rain" style="animation-duration:9.6s;animation-delay:-5.6s" y="-200"><tspan x="14" dy="14">ｲ</tspan><tspan x="14" dy="14">ｳ</tspan><tspan x="14" dy="14">ｳ</tspan><tspan x="14" dy="14">1</tspan><tspan x="14" dy="14">ｶ</tspan><tspan x="14" dy="14">ﾂ</tspan><tspan x="14" dy="14">ﾘ</tspan><tspan x="14" dy="14">ｻ</tspan><tspan x="14" dy="14">ｺ</tspan><tspan x="14" dy="14">ｹ</tspan><tspan x="14" dy="14">ﾓ</tspan><tspan x="14" dy="14">ｷ</tspan></text>
    <text class="rain" style="animation-duration:9.3s;animation-delay:-4.1s" y="-200"><tspan x="42" dy="14">ﾐ</tspan><tspan x="42" dy="14">ﾆ</tspan><tspan x="42" dy="14">ﾊ</tspan><tspan x="42" dy="14">ﾘ</tspan><tspan x="42" dy="14">ﾂ</tspan><tspan x="42" dy="14">ｳ</tspan><tspan x="42" dy="14">1</tspan></text>
    <text class="rain" style="animation-duration:7.0s;animation-delay:-1.2s" y="-200"><tspan x="70" dy="14">ｲ</tspan><tspan x="70" dy="14">ｱ</tspan><tspan x="70" dy="14">1</tspan><tspan x="70" dy="14">ﾋ</tspan><tspan x="70" dy="14">0</tspan><tspan x="70" dy="14">ﾊ</tspan><tspan x="70" dy="14">ﾐ</tspan><tspan x="70" dy="14">ｳ</tspan></text>
    <text class="rain" style="animation-duration:8.2s;animation-delay:-4.2s" y="-200"><tspan x="99" dy="14">ｱ</tspan><tspan x="99" dy="14">ｶ</tspan><tspan x="99" dy="14">0</tspan><tspan x="99" dy="14">ｶ</tspan><tspan x="99" dy="14">ｵ</tspan><tspan x="99" dy="14">ｳ</tspan><tspan x="99" dy="14">ｳ</tspan></text>
    <text class="rain" style="animation-duration:8.1s;animation-delay:-8.0s" y="-200"><tspan x="127" dy="14">ｶ</tspan><tspan x="127" dy="14">ﾋ</tspan><tspan x="127" dy="14">ﾘ</tspan><tspan x="127" dy="14">ﾐ</tspan><tspan x="127" dy="14">ﾂ</tspan><tspan x="127" dy="14">ｳ</tspan><tspan x="127" dy="14">ｵ</tspan><tspan x="127" dy="14">1</tspan><tspan x="127" dy="14">ﾘ</tspan><tspan x="127" dy="14">ﾅ</tspan></text>
    <text class="rain" style="animation-duration:8.9s;animation-delay:-8.3s" y="-200"><tspan x="155" dy="14">ｶ</tspan><tspan x="155" dy="14">ｵ</tspan><tspan x="155" dy="14">ﾊ</tspan><tspan x="155" dy="14">ﾜ</tspan><tspan x="155" dy="14">ﾂ</tspan><tspan x="155" dy="14">ﾋ</tspan><tspan x="155" dy="14">ﾆ</tspan><tspan x="155" dy="14">ｳ</tspan><tspan x="155" dy="14">ｸ</tspan></text>
    <text class="rain" style="animation-duration:10.3s;animation-delay:-5.0s" y="-200"><tspan x="184" dy="14">ｳ</tspan><tspan x="184" dy="14">ﾘ</tspan><tspan x="184" dy="14">1</tspan><tspan x="184" dy="14">ｻ</tspan><tspan x="184" dy="14">ﾋ</tspan><tspan x="184" dy="14">ﾋ</tspan><tspan x="184" dy="14">1</tspan><tspan x="184" dy="14">ﾅ</tspan><tspan x="184" dy="14">ﾂ</tspan><tspan x="184" dy="14">ｼ</tspan></text>
    <text class="rain" style="animation-duration:7.9s;animation-delay:-7.5s" y="-200"><tspan x="212" dy="14">0</tspan><tspan x="212" dy="14">ﾜ</tspan><tspan x="212" dy="14">ｶ</tspan><tspan x="212" dy="14">ﾓ</tspan><tspan x="212" dy="14">ｹ</tspan><tspan x="212" dy="14">ｵ</tspan><tspan x="212" dy="14">ｰ</tspan></text>
    <text class="rain" style="animation-duration:8.9s;animation-delay:-3.3s" y="-200"><tspan x="240" dy="14">ｳ</tspan><tspan x="240" dy="14">ｼ</tspan><tspan x="240" dy="14">ｳ</tspan><tspan x="240" dy="14">ｳ</tspan><tspan x="240" dy="14">ﾆ</tspan><tspan x="240" dy="14">ﾓ</tspan><tspan x="240" dy="14">ﾅ</tspan><tspan x="240" dy="14">ﾐ</tspan><tspan x="240" dy="14">ｺ</tspan><tspan x="240" dy="14">ﾂ</tspan><tspan x="240" dy="14">ｷ</tspan></text>
    <text class="rain" style="animation-duration:9.9s;animation-delay:-2.7s" y="-200"><tspan x="269" dy="14">ﾓ</tspan><tspan x="269" dy="14">ｳ</tspan><tspan x="269" dy="14">ﾘ</tspan><tspan x="269" dy="14">0</tspan><tspan x="269" dy="14">ﾂ</tspan><tspan x="269" dy="14">ｱ</tspan><tspan x="269" dy="14">ｷ</tspan><tspan x="269" dy="14">ﾂ</tspan><tspan x="269" dy="14">ｴ</tspan><tspan x="269" dy="14">ｲ</tspan><tspan x="269" dy="14">ﾅ</tspan></text>
    <text class="rain" style="animation-duration:10.9s;animation-delay:-10.3s" y="-200"><tspan x="297" dy="14">ｻ</tspan><tspan x="297" dy="14">ｴ</tspan><tspan x="297" dy="14">ｵ</tspan><tspan x="297" dy="14">ｳ</tspan><tspan x="297" dy="14">ｵ</tspan><tspan x="297" dy="14">ｹ</tspan><tspan x="297" dy="14">ｸ</tspan></text>
    <text class="rain" style="animation-duration:8.2s;animation-delay:-2.0s" y="-200"><tspan x="325" dy="14">ﾐ</tspan><tspan x="325" dy="14">ﾜ</tspan><tspan x="325" dy="14">ｵ</tspan><tspan x="325" dy="14">ｲ</tspan><tspan x="325" dy="14">ｲ</tspan><tspan x="325" dy="14">1</tspan></text>
    <text class="rain" style="animation-duration:11.5s;animation-delay:-4.3s" y="-200"><tspan x="354" dy="14">ｳ</tspan><tspan x="354" dy="14">ｴ</tspan><tspan x="354" dy="14">ｳ</tspan><tspan x="354" dy="14">ｱ</tspan><tspan x="354" dy="14">ｲ</tspan><tspan x="354" dy="14">ﾂ</tspan></text>
    <text class="rain" style="animation-duration:9.5s;animation-delay:-7.6s" y="-200"><tspan x="382" dy="14">ｶ</tspan><tspan x="382" dy="14">ﾂ</tspan><tspan x="382" dy="14">ｶ</tspan><tspan x="382" dy="14">ｳ</tspan><tspan x="382" dy="14">ﾜ</tspan><tspan x="382" dy="14">ｱ</tspan><tspan x="382" dy="14">ﾊ</tspan></text>
    <text class="rain" style="animation-duration:10.5s;animation-delay:-3.0s" y="-200"><tspan x="410" dy="14">ｵ</tspan><tspan x="410" dy="14">ｲ</tspan><tspan x="410" dy="14">ｱ</tspan><tspan x="410" dy="14">1</tspan><tspan x="410" dy="14">ﾓ</tspan><tspan x="410" dy="14">ﾆ</tspan><tspan x="410" dy="14">ﾂ</tspan></text>
    <text class="rain" style="animation-duration:10.5s;animation-delay:-9.1s" y="-200"><tspan x="439" dy="14">ｱ</tspan><tspan x="439" dy="14">ｺ</tspan><tspan x="439" dy="14">ﾋ</tspan><tspan x="439" dy="14">ｼ</tspan><tspan x="439" dy="14">ｵ</tspan><tspan x="439" dy="14">ﾓ</tspan><tspan x="439" dy="14">ﾂ</tspan><tspan x="439" dy="14">ｲ</tspan><tspan x="439" dy="14">ｹ</tspan></text>
    <text class="rain" style="animation-duration:11.2s;animation-delay:-1.4s" y="-200"><tspan x="467" dy="14">ｵ</tspan><tspan x="467" dy="14">ｰ</tspan><tspan x="467" dy="14">ｸ</tspan><tspan x="467" dy="14">ｳ</tspan><tspan x="467" dy="14">ｻ</tspan><tspan x="467" dy="14">ｻ</tspan><tspan x="467" dy="14">0</tspan><tspan x="467" dy="14">ｴ</tspan><tspan x="467" dy="14">ｱ</tspan><tspan x="467" dy="14">ﾋ</tspan><tspan x="467" dy="14">ﾘ</tspan></text>
    <text class="rain" style="animation-duration:11.8s;animation-delay:-7.7s" y="-200"><tspan x="495" dy="14">ｵ</tspan><tspan x="495" dy="14">ﾊ</tspan><tspan x="495" dy="14">ｰ</tspan><tspan x="495" dy="14">ｳ</tspan><tspan x="495" dy="14">0</tspan><tspan x="495" dy="14">ｵ</tspan><tspan x="495" dy="14">0</tspan><tspan x="495" dy="14">ｹ</tspan><tspan x="495" dy="14">ｹ</tspan><tspan x="495" dy="14">ﾓ</tspan></text>
    <text class="rain" style="animation-duration:9.8s;animation-delay:-5.0s" y="-200"><tspan x="524" dy="14">ｼ</tspan><tspan x="524" dy="14">ｵ</tspan><tspan x="524" dy="14">ｻ</tspan><tspan x="524" dy="14">ｲ</tspan><tspan x="524" dy="14">ｹ</tspan><tspan x="524" dy="14">ｲ</tspan><tspan x="524" dy="14">ｵ</tspan><tspan x="524" dy="14">ｶ</tspan><tspan x="524" dy="14">ｶ</tspan><tspan x="524" dy="14">ｴ</tspan><tspan x="524" dy="14">ﾋ</tspan></text>
    <text class="rain" style="animation-duration:10.7s;animation-delay:-6.7s" y="-200"><tspan x="552" dy="14">ｲ</tspan><tspan x="552" dy="14">ｸ</tspan><tspan x="552" dy="14">ｸ</tspan><tspan x="552" dy="14">ﾜ</tspan><tspan x="552" dy="14">ﾋ</tspan><tspan x="552" dy="14">ｳ</tspan><tspan x="552" dy="14">ｹ</tspan><tspan x="552" dy="14">ｳ</tspan><tspan x="552" dy="14">ﾅ</tspan><tspan x="552" dy="14">ｸ</tspan><tspan x="552" dy="14">ﾓ</tspan></text>
    <text class="rain" style="animation-duration:6.2s;animation-delay:-2.5s" y="-200"><tspan x="580" dy="14">ｹ</tspan><tspan x="580" dy="14">ｻ</tspan><tspan x="580" dy="14">ﾐ</tspan><tspan x="580" dy="14">ｹ</tspan><tspan x="580" dy="14">ｳ</tspan><tspan x="580" dy="14">ｵ</tspan><tspan x="580" dy="14">ｱ</tspan><tspan x="580" dy="14">ｵ</tspan></text>
    <text class="rain" style="animation-duration:6.1s;animation-delay:-4.6s" y="-200"><tspan x="609" dy="14">ｳ</tspan><tspan x="609" dy="14">ﾂ</tspan><tspan x="609" dy="14">ｳ</tspan><tspan x="609" dy="14">ｸ</tspan><tspan x="609" dy="14">ｴ</tspan><tspan x="609" dy="14">ｴ</tspan></text>
    <text class="rain" style="animation-duration:7.9s;animation-delay:-5.0s" y="-200"><tspan x="637" dy="14">ｷ</tspan><tspan x="637" dy="14">ｱ</tspan><tspan x="637" dy="14">ｳ</tspan><tspan x="637" dy="14">ｻ</tspan><tspan x="637" dy="14">ﾋ</tspan><tspan x="637" dy="14">ﾋ</tspan></text>
    <text class="rain" style="animation-duration:9.1s;animation-delay:-5.3s" y="-200"><tspan x="665" dy="14">ｻ</tspan><tspan x="665" dy="14">ｵ</tspan><tspan x="665" dy="14">ｷ</tspan><tspan x="665" dy="14">ﾂ</tspan><tspan x="665" dy="14">ﾘ</tspan><tspan x="665" dy="14">ﾐ</tspan><tspan x="665" dy="14">ﾐ</tspan></text>
    <text class="rain" style="animation-duration:10.8s;animation-delay:-4.0s" y="-200"><tspan x="694" dy="14">ﾐ</tspan><tspan x="694" dy="14">ｳ</tspan><tspan x="694" dy="14">ﾅ</tspan><tspan x="694" dy="14">ｶ</tspan><tspan x="694" dy="14">ｴ</tspan><tspan x="694" dy="14">ｻ</tspan></text>
    <text class="rain" style="animation-duration:6.6s;animation-delay:-2.0s" y="-200"><tspan x="722" dy="14">ｴ</tspan><tspan x="722" dy="14">ﾓ</tspan><tspan x="722" dy="14">1</tspan><tspan x="722" dy="14">ｺ</tspan><tspan x="722" dy="14">ﾜ</tspan><tspan x="722" dy="14">1</tspan><tspan x="722" dy="14">ｺ</tspan><tspan x="722" dy="14">ｱ</tspan><tspan x="722" dy="14">ｻ</tspan><tspan x="722" dy="14">ﾐ</tspan></text>
    <text class="rain" style="animation-duration:9.7s;animation-delay:-0.1s" y="-200"><tspan x="750" dy="14">ｵ</tspan><tspan x="750" dy="14">ｻ</tspan><tspan x="750" dy="14">ｱ</tspan><tspan x="750" dy="14">ﾘ</tspan><tspan x="750" dy="14">ﾋ</tspan><tspan x="750" dy="14">ｲ</tspan><tspan x="750" dy="14">ﾐ</tspan><tspan x="750" dy="14">ﾆ</tspan><tspan x="750" dy="14">ｰ</tspan><tspan x="750" dy="14">ﾋ</tspan><tspan x="750" dy="14">ｷ</tspan><tspan x="750" dy="14">ﾅ</tspan></text>
    <text class="rain" style="animation-duration:8.9s;animation-delay:-1.0s" y="-200"><tspan x="779" dy="14">1</tspan><tspan x="779" dy="14">ｺ</tspan><tspan x="779" dy="14">ﾂ</tspan><tspan x="779" dy="14">ｳ</tspan><tspan x="779" dy="14">ｸ</tspan><tspan x="779" dy="14">ｵ</tspan></text>
    <text class="rain" style="animation-duration:7.5s;animation-delay:-0.9s" y="-200"><tspan x="807" dy="14">ﾊ</tspan><tspan x="807" dy="14">ﾜ</tspan><tspan x="807" dy="14">ﾋ</tspan><tspan x="807" dy="14">ｵ</tspan><tspan x="807" dy="14">ｵ</tspan><tspan x="807" dy="14">1</tspan><tspan x="807" dy="14">ﾊ</tspan><tspan x="807" dy="14">ｴ</tspan></text>
    <text class="rain" style="animation-duration:10.7s;animation-delay:-7.7s" y="-200"><tspan x="835" dy="14">0</tspan><tspan x="835" dy="14">ﾆ</tspan><tspan x="835" dy="14">ﾊ</tspan><tspan x="835" dy="14">ｷ</tspan><tspan x="835" dy="14">ﾜ</tspan><tspan x="835" dy="14">ｴ</tspan><tspan x="835" dy="14">ｱ</tspan><tspan x="835" dy="14">ﾓ</tspan><tspan x="835" dy="14">ｻ</tspan><tspan x="835" dy="14">ｰ</tspan></text>
    <rect x="0.5" y="0.5" width="849" height="299" rx="6" fill="none" stroke="#0a5c1f"/>
    <text x="56" y="32" class="title">Contributions, last 31 days</text>
    <text x="826" y="32" class="sub" text-anchor="end">18 total  /  best day 5</text>
    <line x1="56" y1="254.0" x2="826" y2="254.0" class="grid"/><text x="46" y="258.0" class="axis" text-anchor="end">0</text><line x1="56" y1="206.5" x2="826" y2="206.5" class="grid"/><text x="46" y="210.5" class="axis" text-anchor="end">2</text><line x1="56" y1="159.0" x2="826" y2="159.0" class="grid"/><text x="46" y="163.0" class="axis" text-anchor="end">4</text><line x1="56" y1="111.5" x2="826" y2="111.5" class="grid"/><text x="46" y="115.5" class="axis" text-anchor="end">6</text><line x1="56" y1="64.0" x2="826" y2="64.0" class="grid"/><text x="46" y="68.0" class="axis" text-anchor="end">8</text>
    <text x="56.0" y="276" class="axis" text-anchor="middle">Sep 01</text><text x="184.3" y="276" class="axis" text-anchor="middle">Sep 06</text><text x="312.7" y="276" class="axis" text-anchor="middle">Sep 11</text><text x="441.0" y="276" class="axis" text-anchor="middle">Sep 16</text><text x="569.3" y="276" class="axis" text-anchor="middle">Sep 21</text><text x="697.7" y="276" class="axis" text-anchor="middle">Sep 26</text><text x="826.0" y="276" class="axis" text-anchor="middle">Oct 01</text>
    <path d="M56.0,254.0 L81.7,254.0 L107.3,254.0 L133.0,254.0 L158.7,254.0 L184.3,254.0 L210.0,254.0 L235.7,254.0 L261.3,230.2 L287.0,230.2 L312.7,254.0 L338.3,230.2 L364.0,230.2 L389.7,254.0 L415.3,254.0 L441.0,254.0 L466.7,254.0 L492.3,254.0 L518.0,254.0 L543.7,254.0 L569.3,182.8 L595.0,254.0 L620.7,230.2 L646.3,206.5 L672.0,254.0 L697.7,230.2 L723.3,254.0 L749.0,230.2 L774.7,230.2 L800.3,135.2 L826.0,254.0 L826.0,254 L56.0,254 Z" class="area"/>
    <path d="M56.0,254.0 L81.7,254.0 L107.3,254.0 L133.0,254.0 L158.7,254.0 L184.3,254.0 L210.0,254.0 L235.7,254.0 L261.3,230.2 L287.0,230.2 L312.7,254.0 L338.3,230.2 L364.0,230.2 L389.7,254.0 L415.3,254.0 L441.0,254.0 L466.7,254.0 L492.3,254.0 L518.0,254.0 L543.7,254.0 L569.3,182.8 L595.0,254.0 L620.7,230.2 L646.3,206.5 L672.0,254.0 L697.7,230.2 L723.3,254.0 L749.0,230.2 L774.7,230.2 L800.3,135.2 L826.0,254.0" class="line"/>
    <circle cx="56.0" cy="254.0" r="3" class="pt"><title>2026-09-01: 0</title></circle><circle cx="81.7" cy="254.0" r="3" class="pt"><title>2026-09-02: 0</title></circle><circle cx="107.3" cy="254.0" r="3" class="pt"><title>2026-09-03: 0</title></circle><circle cx="133.0" cy="254.0" r="3" class="pt"><title>2026-09-04: 0</title></circle><circle cx="158.7" cy="254.0" r="3" class="pt"><title>2026-09-05: 0</title></circle><circle cx="184.3" cy="254.0" r="3" class="pt"><title>2026-09-06: 0</title></circle><circle cx="210.0" cy="254.0" r="3" class="pt"><title>2026-09-07: 0</title></circle><circle cx="235.7" cy="254.0" r="3" class="pt"><title>2026-09-08: 0</title></circle><circle cx="261.3" cy="230.2" r="3" class="pt"><title>2026-09-09: 1</title></circle><circle cx="287.0" cy="230.2" r="3" class="pt"><title>2026-09-10: 1</title></circle><circle cx="312.7" cy="254.0" r="3" class="pt"><title>2026-09-11: 0</title></circle><circle cx="338.3" cy="230.2" r="3" class="pt"><title>2026-09-12: 1</title></circle><circle cx="364.0" cy="230.2" r="3" class="pt"><title>2026-09-13: 1</title></circle><circle cx="389.7" cy="254.0" r="3" class="pt"><title>2026-09-14: 0</title></circle><circle cx="415.3" cy="254.0" r="3" class="pt"><title>2026-09-15: 0</title></circle><circle cx="441.0" cy="254.0" r="3" class="pt"><title>2026-09-16: 0</title></circle><circle cx="466.7" cy="254.0" r="3" class="pt"><title>2026-09-17: 0</title></circle><circle cx="492.3" cy="254.0" r="3" class="pt"><title>2026-09-18: 0</title></circle><circle cx="518.0" cy="254.0" r="3" class="pt"><title>2026-09-19: 0</title></circle><circle cx="543.7" cy="254.0" r="3" class="pt"><title>2026-09-20: 0</title></circle><circle cx="569.3" cy="182.8" r="3" class="pt"><title>2026-09-21: 3</title></circle><circle cx="595.0" cy="254.0" r="3" class="pt"><title>2026-09-22: 0</title></circle><circle cx="620.7" cy="230.2" r="3" class="pt"><title>2026-09-23: 1</title></circle><circle cx="646.3" cy="206.5" r="3" class="pt"><title>2026-09-24: 2</title></circle><circle cx="672.0" cy="254.0" r="3" class="pt"><title>2026-09-25: 0</title></circle><circle cx="697.7" cy="230.2" r="3" class="pt"><title>2026-09-26: 1</title></circle><circle cx="723.3" cy="254.0" r="3" class="pt"><title>2026-09-27: 0</title></circle><circle cx="749.0" cy="230.2" r="3" class="pt"><title>2026-09-28: 1</title></circle><circle cx="774.7" cy="230.2" r="3" class="pt"><title>2026-09-29: 1</title></circle><circle cx="800.3" cy="135.2" r="3" class="pt"><title>2026-09-30: 5</title></circle><circle cx="826.0" cy="254.0" r="3" class="pt"><title>2026-10-01: 0</title></circle>
  </g>
</svg>